<svg xmlns="http://www.w3.org/2000/svg" viewBox="0 0 512 512">
  <defs>
    <linearGradient id="g" x1="128" y1="112" x2="392" y2="404" gradientUnits="userSpaceOnUse">
      <stop stop-color="#27d7c2"/>
      <stop offset=".5" stop-color="#59ef7f"/>
      <stop offset="1" stop-color="#0ea5c8"/>
    </linearGradient>
  </defs>
  <rect width="512" height="512" fill="#02070b"/>
  <circle cx="256" cy="256" r="190" fill="#031017" stroke="#34d399" stroke-opacity=".22" stroke-width="8"/>
  <path d="M335 139h-87c-61 0-111 50-111 111v25c0 61 50 111 111 111h55l-25-45h-27c-38 0-69-31-69-69v-19c0-38 31-69 69-69h84c18 0 32-14 32-32s-14-13-32-13Z" fill="url(#g)"/>
  <path d="M245 230h72c14 0 24 10 24 24v87h43l-25 45h-51c-14 0-24-10-24-24v-86h-39v-46Z" fill="url(#g)"/>
  <path d="m385 166 6 17 17 6-17 6-6 17-6-17-17-6 17-6 6-17Z" fill="#75f49a"/>
</svg>
