<svg xmlns="http://www.w3.org/2000/svg" viewBox="0 0 512 512">
  <defs>
    <linearGradient id="g" x1="108" y1="96" x2="408" y2="416" gradientUnits="userSpaceOnUse">
      <stop stop-color="#27d7c2"/>
      <stop offset=".5" stop-color="#59ef7f"/>
      <stop offset="1" stop-color="#0ea5c8"/>
    </linearGradient>
  </defs>
  <rect width="512" height="512" rx="116" fill="#02070b"/>
  <path d="M350 105H238c-78 0-141 63-141 141v31c0 78 63 141 141 141h70l-31-57h-35c-48 0-87-39-87-87v-25c0-48 39-87 87-87h108c22 0 40-18 40-40s-18-17-40-17Z" fill="url(#g)"/>
  <path d="M235 220h92c17 0 30 13 30 30v111h54l-31 57h-65c-17 0-30-13-30-30V278h-50v-58Z" fill="url(#g)"/>
  <path d="m413 138 8 22 22 8-22 8-8 22-8-22-22-8 22-8 8-22Z" fill="#75f49a"/>
</svg>
